<svg xmlns="http://www.w3.org/2000/svg" xmlns:xlink="http://www.w3.org/1999/xlink" width="500" zoomAndPan="magnify" viewBox="0 0 375 374.999991" height="500" preserveAspectRatio="xMidYMid meet" version="1.0"><defs><g/><clipPath id="dcc167736a"><path d="M 171 99.441406 L 200 99.441406 L 200 138 L 171 138 Z M 171 99.441406 " clip-rule="nonzero"/></clipPath></defs><g clip-path="url(#dcc167736a)"><path fill="#004465" d="M 187.496094 137.894531 C 186.570312 137.894531 185.832031 137.15625 185.832031 136.230469 L 185.832031 129.851562 C 185.832031 127.078125 186.847656 124.492188 188.695312 122.550781 C 190.082031 121.070312 191.839844 119.128906 193.132812 117.835938 C 195.261719 115.617188 196.183594 113.214844 196 110.808594 C 195.628906 106.375 191.65625 102.769531 187.3125 102.859375 C 184.628906 102.953125 182.132812 104.246094 180.5625 106.375 C 180.285156 106.652344 180.101562 106.925781 179.914062 107.203125 C 178.804688 108.960938 177.050781 111.640625 173.445312 112.289062 C 172.519531 112.472656 171.6875 111.828125 171.503906 110.996094 C 171.320312 110.070312 171.964844 109.238281 172.796875 109.054688 C 175.015625 108.683594 176.035156 107.019531 177.050781 105.449219 C 177.328125 105.078125 177.511719 104.710938 177.695312 104.433594 C 180.007812 101.382812 183.429688 99.625 187.21875 99.53125 C 193.503906 99.441406 198.773438 104.339844 199.328125 110.53125 C 199.605469 113.859375 198.308594 117.09375 195.628906 120.054688 C 194.335938 121.441406 192.578125 123.289062 191.191406 124.859375 C 189.898438 126.246094 189.160156 128.09375 189.160156 129.945312 L 189.160156 136.324219 C 189.066406 137.15625 188.328125 137.894531 187.496094 137.894531 Z M 187.496094 137.894531 " fill-opacity="1" fill-rule="nonzero"/></g><path fill="#004465" d="M 170.394531 143.996094 C 166.882812 147.878906 161.613281 157.492188 154.589844 161.558594 C 152.183594 162.945312 110.589844 180.042969 106.519531 182.539062 C 95.890625 189.105469 95.335938 195.390625 95.335938 195.390625 C 95.335938 195.390625 93.210938 203.339844 100.421875 199.457031 C 108.460938 195.113281 187.496094 153.238281 187.496094 153.238281 L 187.496094 136.414062 C 180.746094 136.414062 174.648438 139.28125 170.394531 143.996094 Z M 170.394531 143.996094 " fill-opacity="1" fill-rule="nonzero"/><path fill="#004465" d="M 204.597656 143.996094 C 208.109375 147.878906 213.378906 157.492188 220.402344 161.558594 C 222.804688 162.945312 264.402344 180.042969 268.46875 182.539062 C 279.101562 189.195312 279.65625 195.390625 279.65625 195.390625 C 279.65625 195.390625 281.78125 203.339844 274.570312 199.457031 C 266.527344 195.113281 187.496094 153.238281 187.496094 153.238281 L 187.496094 136.414062 C 194.335938 136.414062 200.34375 139.28125 204.597656 143.996094 Z M 204.597656 143.996094 " fill-opacity="1" fill-rule="nonzero"/><g fill="#004465" fill-opacity="1"><g transform="translate(145.555783, 207.514395)"><g><path d="M 0.375 -1.71875 C 0.375 -2.238281 0.414062 -2.707031 0.5 -3.125 C 0.582031 -3.539062 0.691406 -3.957031 0.828125 -4.375 C 0.960938 -4.789062 1.097656 -5.257812 1.234375 -5.78125 C 1.378906 -6.300781 1.519531 -6.914062 1.65625 -7.625 C 1.789062 -8.332031 1.898438 -9.175781 1.984375 -10.15625 C 2.066406 -11.132812 2.109375 -12.300781 2.109375 -13.65625 C 2.109375 -15.007812 2.066406 -16.175781 1.984375 -17.15625 C 1.898438 -18.132812 1.789062 -18.976562 1.65625 -19.6875 C 1.519531 -20.394531 1.378906 -21.007812 1.234375 -21.53125 C 1.097656 -22.050781 0.960938 -22.519531 0.828125 -22.9375 C 0.691406 -23.351562 0.582031 -23.769531 0.5 -24.1875 C 0.414062 -24.613281 0.375 -25.082031 0.375 -25.59375 C 0.375 -26.0625 0.484375 -26.414062 0.703125 -26.65625 C 0.929688 -26.894531 1.207031 -27.0625 1.53125 -27.15625 C 1.851562 -27.25 2.171875 -27.296875 2.484375 -27.296875 C 2.796875 -27.304688 3.054688 -27.3125 3.265625 -27.3125 L 11.78125 -27.3125 C 13.96875 -27.3125 15.816406 -26.984375 17.328125 -26.328125 C 18.835938 -25.671875 19.984375 -24.722656 20.765625 -23.484375 C 21.554688 -22.253906 21.953125 -20.769531 21.953125 -19.03125 C 21.953125 -18.269531 21.835938 -17.53125 21.609375 -16.8125 C 21.390625 -16.101562 21.082031 -15.457031 20.6875 -14.875 C 20.289062 -14.300781 19.828125 -13.816406 19.296875 -13.421875 C 18.773438 -13.035156 18.21875 -12.785156 17.625 -12.671875 C 17.34375 -12.617188 17.175781 -12.503906 17.125 -12.328125 C 17.125 -12.316406 17.210938 -12.257812 17.390625 -12.15625 C 17.578125 -12.050781 17.796875 -11.890625 18.046875 -11.671875 C 18.304688 -11.460938 18.53125 -11.179688 18.71875 -10.828125 C 18.945312 -10.410156 19.191406 -9.914062 19.453125 -9.34375 C 19.722656 -8.769531 19.988281 -8.164062 20.25 -7.53125 C 20.507812 -6.894531 20.753906 -6.28125 20.984375 -5.6875 C 21.210938 -5.101562 21.398438 -4.59375 21.546875 -4.15625 C 21.722656 -3.644531 21.894531 -3.253906 22.0625 -2.984375 C 22.226562 -2.710938 22.367188 -2.5 22.484375 -2.34375 C 22.609375 -2.195312 22.703125 -2.046875 22.765625 -1.890625 C 22.835938 -1.742188 22.875 -1.53125 22.875 -1.25 C 22.875 -0.882812 22.710938 -0.582031 22.390625 -0.34375 C 22.078125 -0.113281 21.671875 0 21.171875 0 L 14.078125 0 C 13.753906 0 13.457031 -0.0625 13.1875 -0.1875 C 12.914062 -0.320312 12.75 -0.550781 12.6875 -0.875 C 12.625 -1.21875 12.617188 -1.515625 12.671875 -1.765625 C 12.722656 -2.023438 12.789062 -2.285156 12.875 -2.546875 C 12.957031 -2.804688 13 -3.109375 13 -3.453125 C 13 -3.796875 12.941406 -4.242188 12.828125 -4.796875 C 12.722656 -5.359375 12.578125 -5.945312 12.390625 -6.5625 C 12.210938 -7.1875 12.003906 -7.769531 11.765625 -8.3125 C 11.523438 -8.863281 11.265625 -9.3125 10.984375 -9.65625 C 10.703125 -10.007812 10.421875 -10.1875 10.140625 -10.1875 C 9.898438 -10.1875 9.734375 -10.113281 9.640625 -9.96875 C 9.546875 -9.820312 9.5 -9.660156 9.5 -9.484375 C 9.5 -8.710938 9.570312 -7.984375 9.71875 -7.296875 C 9.875 -6.617188 10.054688 -5.96875 10.265625 -5.34375 C 10.472656 -4.726562 10.65625 -4.125 10.8125 -3.53125 C 10.96875 -2.9375 11.046875 -2.332031 11.046875 -1.71875 C 11.046875 -1.257812 10.929688 -0.90625 10.703125 -0.65625 C 10.484375 -0.414062 10.210938 -0.25 9.890625 -0.15625 C 9.566406 -0.0625 9.242188 -0.0078125 8.921875 0 C 8.609375 0 8.351562 0 8.15625 0 L 3.265625 0 C 3.054688 0 2.796875 0 2.484375 0 C 2.171875 -0.0078125 1.851562 -0.0625 1.53125 -0.15625 C 1.207031 -0.25 0.929688 -0.414062 0.703125 -0.65625 C 0.484375 -0.90625 0.375 -1.257812 0.375 -1.71875 Z M 9.515625 -17.84375 C 9.515625 -17.457031 9.671875 -17.195312 9.984375 -17.0625 C 10.304688 -16.9375 10.675781 -16.867188 11.09375 -16.859375 C 11.8125 -16.847656 12.394531 -16.925781 12.84375 -17.09375 C 13.300781 -17.269531 13.648438 -17.488281 13.890625 -17.75 C 14.128906 -18.019531 14.289062 -18.296875 14.375 -18.578125 C 14.46875 -18.859375 14.515625 -19.113281 14.515625 -19.34375 C 14.515625 -19.5625 14.46875 -19.804688 14.375 -20.078125 C 14.289062 -20.347656 14.128906 -20.609375 13.890625 -20.859375 C 13.648438 -21.117188 13.300781 -21.335938 12.84375 -21.515625 C 12.394531 -21.691406 11.8125 -21.796875 11.09375 -21.828125 C 10.675781 -21.859375 10.304688 -21.800781 9.984375 -21.65625 C 9.671875 -21.507812 9.515625 -21.238281 9.515625 -20.84375 Z M 9.515625 -17.84375 "/></g></g></g><g fill="#004465" fill-opacity="1"><g transform="translate(169.423695, 207.514395)"><g><path d="M 9.46875 0.28125 C 7.570312 0.28125 5.953125 -0.125 4.609375 -0.9375 C 3.265625 -1.75 2.238281 -2.890625 1.53125 -4.359375 C 0.820312 -5.828125 0.46875 -7.539062 0.46875 -9.5 C 0.46875 -11.445312 0.820312 -13.148438 1.53125 -14.609375 C 2.238281 -16.078125 3.265625 -17.21875 4.609375 -18.03125 C 5.953125 -18.84375 7.570312 -19.25 9.46875 -19.25 C 11.363281 -19.25 12.976562 -18.84375 14.3125 -18.03125 C 15.65625 -17.21875 16.679688 -16.078125 17.390625 -14.609375 C 18.097656 -13.148438 18.453125 -11.445312 18.453125 -9.5 C 18.453125 -7.539062 18.097656 -5.828125 17.390625 -4.359375 C 16.679688 -2.890625 15.65625 -1.75 14.3125 -0.9375 C 12.976562 -0.125 11.363281 0.28125 9.46875 0.28125 Z M 7.78125 -9.46875 C 7.78125 -8.050781 7.929688 -6.90625 8.234375 -6.03125 C 8.546875 -5.15625 8.957031 -4.71875 9.46875 -4.71875 C 9.96875 -4.71875 10.375 -5.15625 10.6875 -6.03125 C 11 -6.90625 11.15625 -8.050781 11.15625 -9.46875 C 11.15625 -10.894531 11 -12.046875 10.6875 -12.921875 C 10.375 -13.796875 9.96875 -14.234375 9.46875 -14.234375 C 8.957031 -14.234375 8.546875 -13.796875 8.234375 -12.921875 C 7.929688 -12.046875 7.78125 -10.894531 7.78125 -9.46875 Z M 7.78125 -9.46875 "/></g></g></g><g fill="#004465" fill-opacity="1"><g transform="translate(189.155564, 207.514395)"><g><path d="M 0.1875 -17.28125 C 0.1875 -17.738281 0.296875 -18.082031 0.515625 -18.3125 C 0.742188 -18.550781 1.019531 -18.71875 1.34375 -18.8125 C 1.664062 -18.90625 1.984375 -18.953125 2.296875 -18.953125 C 2.609375 -18.960938 2.867188 -18.96875 3.078125 -18.96875 L 10.484375 -18.96875 C 10.898438 -18.96875 11.398438 -18.921875 11.984375 -18.828125 C 12.578125 -18.742188 13.207031 -18.578125 13.875 -18.328125 C 14.539062 -18.085938 15.195312 -17.742188 15.84375 -17.296875 C 16.488281 -16.859375 17.070312 -16.289062 17.59375 -15.59375 C 18.113281 -14.894531 18.53125 -14.039062 18.84375 -13.03125 C 19.164062 -12.03125 19.328125 -10.847656 19.328125 -9.484375 C 19.328125 -7.335938 19.015625 -5.539062 18.390625 -4.09375 C 17.765625 -2.644531 16.898438 -1.550781 15.796875 -0.8125 C 14.703125 -0.0820312 13.453125 0.28125 12.046875 0.28125 C 11.453125 0.28125 10.910156 0.160156 10.421875 -0.078125 C 9.929688 -0.328125 9.519531 -0.648438 9.1875 -1.046875 C 9.1875 -0.304688 9.269531 0.351562 9.4375 0.9375 C 9.601562 1.53125 9.816406 2.070312 10.078125 2.5625 C 10.335938 3.0625 10.597656 3.53125 10.859375 3.96875 C 11.117188 4.414062 11.332031 4.851562 11.5 5.28125 C 11.675781 5.71875 11.765625 6.175781 11.765625 6.65625 C 11.765625 7.113281 11.648438 7.457031 11.421875 7.6875 C 11.203125 7.925781 10.929688 8.09375 10.609375 8.1875 C 10.285156 8.28125 9.96875 8.328125 9.65625 8.328125 C 9.34375 8.335938 9.082031 8.34375 8.875 8.34375 L 3.078125 8.34375 C 2.867188 8.34375 2.609375 8.335938 2.296875 8.328125 C 1.984375 8.328125 1.664062 8.28125 1.34375 8.1875 C 1.019531 8.09375 0.742188 7.925781 0.515625 7.6875 C 0.296875 7.457031 0.1875 7.113281 0.1875 6.65625 C 0.1875 5.90625 0.269531 5.125 0.4375 4.3125 C 0.613281 3.5 0.816406 2.625 1.046875 1.6875 C 1.285156 0.757812 1.488281 -0.25 1.65625 -1.34375 C 1.832031 -2.4375 1.921875 -3.632812 1.921875 -4.9375 C 1.921875 -6.332031 1.832031 -7.609375 1.65625 -8.765625 C 1.488281 -9.929688 1.285156 -11.003906 1.046875 -11.984375 C 0.816406 -12.972656 0.613281 -13.898438 0.4375 -14.765625 C 0.269531 -15.628906 0.1875 -16.46875 0.1875 -17.28125 Z M 8.75 -9.46875 C 8.75 -8.050781 8.898438 -6.90625 9.203125 -6.03125 C 9.515625 -5.15625 9.925781 -4.71875 10.4375 -4.71875 C 10.9375 -4.71875 11.34375 -5.15625 11.65625 -6.03125 C 11.96875 -6.90625 12.125 -8.050781 12.125 -9.46875 C 12.125 -10.894531 11.96875 -12.046875 11.65625 -12.921875 C 11.34375 -13.796875 10.9375 -14.234375 10.4375 -14.234375 C 9.925781 -14.234375 9.515625 -13.796875 9.203125 -12.921875 C 8.898438 -12.046875 8.75 -10.894531 8.75 -9.46875 Z M 8.75 -9.46875 "/></g></g></g><g fill="#004465" fill-opacity="1"><g transform="translate(209.760172, 207.514395)"><g><path d="M 0.46875 -9.484375 C 0.46875 -10.796875 0.613281 -11.953125 0.90625 -12.953125 C 1.207031 -13.953125 1.613281 -14.8125 2.125 -15.53125 C 2.632812 -16.25 3.195312 -16.847656 3.8125 -17.328125 C 4.4375 -17.804688 5.078125 -18.1875 5.734375 -18.46875 C 6.390625 -18.75 7.019531 -18.945312 7.625 -19.0625 C 8.226562 -19.1875 8.757812 -19.25 9.21875 -19.25 C 10.039062 -19.257812 10.691406 -19.238281 11.171875 -19.1875 C 11.660156 -19.144531 12.066406 -19.097656 12.390625 -19.046875 C 12.710938 -18.992188 13.035156 -18.96875 13.359375 -18.96875 C 14.015625 -18.96875 14.539062 -18.992188 14.9375 -19.046875 C 15.34375 -19.097656 15.695312 -19.144531 16 -19.1875 C 16.300781 -19.226562 16.59375 -19.25 16.875 -19.25 C 17.082031 -19.25 17.320312 -19.222656 17.59375 -19.171875 C 17.863281 -19.128906 18.128906 -19.03125 18.390625 -18.875 C 18.660156 -18.71875 18.882812 -18.5 19.0625 -18.21875 C 19.238281 -17.945312 19.328125 -17.582031 19.328125 -17.125 C 19.328125 -16.6875 19.257812 -16.222656 19.125 -15.734375 C 19 -15.253906 18.851562 -14.722656 18.6875 -14.140625 C 18.519531 -13.566406 18.367188 -12.898438 18.234375 -12.140625 C 18.109375 -11.378906 18.046875 -10.492188 18.046875 -9.484375 C 18.046875 -8.609375 18.09375 -7.863281 18.1875 -7.25 C 18.28125 -6.632812 18.398438 -6.101562 18.546875 -5.65625 C 18.691406 -5.207031 18.835938 -4.816406 18.984375 -4.484375 C 19.128906 -4.148438 19.25 -3.832031 19.34375 -3.53125 C 19.4375 -3.226562 19.484375 -2.90625 19.484375 -2.5625 C 19.484375 -2 19.265625 -1.503906 18.828125 -1.078125 C 18.398438 -0.648438 17.828125 -0.316406 17.109375 -0.078125 C 16.390625 0.160156 15.582031 0.28125 14.6875 0.28125 C 14.289062 0.28125 13.984375 0.222656 13.765625 0.109375 C 13.554688 -0.00390625 13.382812 -0.132812 13.25 -0.28125 C 13.113281 -0.425781 12.96875 -0.550781 12.8125 -0.65625 C 12.664062 -0.769531 12.46875 -0.828125 12.21875 -0.828125 C 11.9375 -0.828125 11.6875 -0.769531 11.46875 -0.65625 C 11.257812 -0.550781 11.019531 -0.425781 10.75 -0.28125 C 10.476562 -0.132812 10.140625 -0.00390625 9.734375 0.109375 C 9.328125 0.222656 8.796875 0.28125 8.140625 0.28125 C 7.085938 0.28125 6.097656 0.046875 5.171875 -0.421875 C 4.242188 -0.890625 3.425781 -1.550781 2.71875 -2.40625 C 2.019531 -3.269531 1.46875 -4.300781 1.0625 -5.5 C 0.664062 -6.695312 0.46875 -8.023438 0.46875 -9.484375 Z M 9.375 -14.25 C 8.863281 -14.25 8.453125 -13.8125 8.140625 -12.9375 C 7.835938 -12.0625 7.6875 -10.910156 7.6875 -9.484375 C 7.6875 -8.066406 7.835938 -6.921875 8.140625 -6.046875 C 8.453125 -5.179688 8.863281 -4.75 9.375 -4.75 C 9.875 -4.75 10.28125 -5.179688 10.59375 -6.046875 C 10.90625 -6.921875 11.0625 -8.066406 11.0625 -9.484375 C 11.0625 -10.910156 10.90625 -12.0625 10.59375 -12.9375 C 10.28125 -13.8125 9.875 -14.25 9.375 -14.25 Z M 9.375 -14.25 "/></g></g></g><g fill="#004465" fill-opacity="1"><g transform="translate(113.188597, 237.514393)"><g><path d="M 0.375 -1.71875 C 0.375 -2.238281 0.414062 -2.707031 0.5 -3.125 C 0.582031 -3.539062 0.691406 -3.957031 0.828125 -4.375 C 0.960938 -4.789062 1.097656 -5.257812 1.234375 -5.78125 C 1.378906 -6.300781 1.519531 -6.914062 1.65625 -7.625 C 1.789062 -8.332031 1.898438 -9.175781 1.984375 -10.15625 C 2.066406 -11.132812 2.109375 -12.300781 2.109375 -13.65625 C 2.109375 -15.007812 2.066406 -16.175781 1.984375 -17.15625 C 1.898438 -18.132812 1.789062 -18.976562 1.65625 -19.6875 C 1.519531 -20.394531 1.378906 -21.007812 1.234375 -21.53125 C 1.097656 -22.050781 0.960938 -22.519531 0.828125 -22.9375 C 0.691406 -23.351562 0.582031 -23.769531 0.5 -24.1875 C 0.414062 -24.613281 0.375 -25.082031 0.375 -25.59375 C 0.375 -26.0625 0.484375 -26.414062 0.703125 -26.65625 C 0.929688 -26.894531 1.207031 -27.0625 1.53125 -27.15625 C 1.851562 -27.25 2.171875 -27.296875 2.484375 -27.296875 C 2.796875 -27.304688 3.054688 -27.3125 3.265625 -27.3125 L 11.78125 -27.3125 C 13.96875 -27.3125 15.816406 -26.984375 17.328125 -26.328125 C 18.835938 -25.671875 19.984375 -24.722656 20.765625 -23.484375 C 21.554688 -22.253906 21.953125 -20.769531 21.953125 -19.03125 C 21.953125 -18.269531 21.835938 -17.53125 21.609375 -16.8125 C 21.390625 -16.101562 21.082031 -15.457031 20.6875 -14.875 C 20.289062 -14.300781 19.828125 -13.816406 19.296875 -13.421875 C 18.773438 -13.035156 18.21875 -12.785156 17.625 -12.671875 C 17.34375 -12.617188 17.175781 -12.503906 17.125 -12.328125 C 17.125 -12.316406 17.210938 -12.257812 17.390625 -12.15625 C 17.578125 -12.050781 17.796875 -11.890625 18.046875 -11.671875 C 18.304688 -11.460938 18.53125 -11.179688 18.71875 -10.828125 C 18.945312 -10.410156 19.191406 -9.914062 19.453125 -9.34375 C 19.722656 -8.769531 19.988281 -8.164062 20.25 -7.53125 C 20.507812 -6.894531 20.753906 -6.28125 20.984375 -5.6875 C 21.210938 -5.101562 21.398438 -4.59375 21.546875 -4.15625 C 21.722656 -3.644531 21.894531 -3.253906 22.0625 -2.984375 C 22.226562 -2.710938 22.367188 -2.5 22.484375 -2.34375 C 22.609375 -2.195312 22.703125 -2.046875 22.765625 -1.890625 C 22.835938 -1.742188 22.875 -1.53125 22.875 -1.25 C 22.875 -0.882812 22.710938 -0.582031 22.390625 -0.34375 C 22.078125 -0.113281 21.671875 0 21.171875 0 L 14.078125 0 C 13.753906 0 13.457031 -0.0625 13.1875 -0.1875 C 12.914062 -0.320312 12.75 -0.550781 12.6875 -0.875 C 12.625 -1.21875 12.617188 -1.515625 12.671875 -1.765625 C 12.722656 -2.023438 12.789062 -2.285156 12.875 -2.546875 C 12.957031 -2.804688 13 -3.109375 13 -3.453125 C 13 -3.796875 12.941406 -4.242188 12.828125 -4.796875 C 12.722656 -5.359375 12.578125 -5.945312 12.390625 -6.5625 C 12.210938 -7.1875 12.003906 -7.769531 11.765625 -8.3125 C 11.523438 -8.863281 11.265625 -9.3125 10.984375 -9.65625 C 10.703125 -10.007812 10.421875 -10.1875 10.140625 -10.1875 C 9.898438 -10.1875 9.734375 -10.113281 9.640625 -9.96875 C 9.546875 -9.820312 9.5 -9.660156 9.5 -9.484375 C 9.5 -8.710938 9.570312 -7.984375 9.71875 -7.296875 C 9.875 -6.617188 10.054688 -5.96875 10.265625 -5.34375 C 10.472656 -4.726562 10.65625 -4.125 10.8125 -3.53125 C 10.96875 -2.9375 11.046875 -2.332031 11.046875 -1.71875 C 11.046875 -1.257812 10.929688 -0.90625 10.703125 -0.65625 C 10.484375 -0.414062 10.210938 -0.25 9.890625 -0.15625 C 9.566406 -0.0625 9.242188 -0.0078125 8.921875 0 C 8.609375 0 8.351562 0 8.15625 0 L 3.265625 0 C 3.054688 0 2.796875 0 2.484375 0 C 2.171875 -0.0078125 1.851562 -0.0625 1.53125 -0.15625 C 1.207031 -0.25 0.929688 -0.414062 0.703125 -0.65625 C 0.484375 -0.90625 0.375 -1.257812 0.375 -1.71875 Z M 9.515625 -17.84375 C 9.515625 -17.457031 9.671875 -17.195312 9.984375 -17.0625 C 10.304688 -16.9375 10.675781 -16.867188 11.09375 -16.859375 C 11.8125 -16.847656 12.394531 -16.925781 12.84375 -17.09375 C 13.300781 -17.269531 13.648438 -17.488281 13.890625 -17.75 C 14.128906 -18.019531 14.289062 -18.296875 14.375 -18.578125 C 14.46875 -18.859375 14.515625 -19.113281 14.515625 -19.34375 C 14.515625 -19.5625 14.46875 -19.804688 14.375 -20.078125 C 14.289062 -20.347656 14.128906 -20.609375 13.890625 -20.859375 C 13.648438 -21.117188 13.300781 -21.335938 12.84375 -21.515625 C 12.394531 -21.691406 11.8125 -21.796875 11.09375 -21.828125 C 10.675781 -21.859375 10.304688 -21.800781 9.984375 -21.65625 C 9.671875 -21.507812 9.515625 -21.238281 9.515625 -20.84375 Z M 9.515625 -17.84375 "/></g></g></g><g fill="#004465" fill-opacity="1"><g transform="translate(137.05651, 237.514393)"><g><path d="M 0.46875 -9.484375 C 0.46875 -10.679688 0.671875 -11.863281 1.078125 -13.03125 C 1.492188 -14.195312 2.125 -15.242188 2.96875 -16.171875 C 3.8125 -17.109375 4.875 -17.851562 6.15625 -18.40625 C 7.4375 -18.96875 8.957031 -19.25 10.71875 -19.25 C 11.6875 -19.25 12.617188 -19.125 13.515625 -18.875 C 14.421875 -18.632812 15.222656 -18.265625 15.921875 -17.765625 C 16.628906 -17.265625 17.1875 -16.640625 17.59375 -15.890625 C 18 -15.148438 18.203125 -14.28125 18.203125 -13.28125 C 18.203125 -12.175781 18.035156 -11.21875 17.703125 -10.40625 C 17.367188 -9.601562 16.921875 -8.921875 16.359375 -8.359375 C 15.796875 -7.804688 15.171875 -7.347656 14.484375 -6.984375 C 13.804688 -6.628906 13.117188 -6.34375 12.421875 -6.125 C 11.765625 -5.925781 11.1875 -5.832031 10.6875 -5.84375 C 10.1875 -5.851562 9.789062 -5.859375 9.5 -5.859375 C 9.332031 -5.859375 9.207031 -5.84375 9.125 -5.8125 C 9.050781 -5.78125 9.015625 -5.707031 9.015625 -5.59375 C 9.015625 -5.394531 9.125 -5.226562 9.34375 -5.09375 C 9.5625 -4.96875 9.828125 -4.878906 10.140625 -4.828125 C 10.453125 -4.773438 10.734375 -4.75 10.984375 -4.75 C 11.660156 -4.75 12.234375 -4.832031 12.703125 -5 C 13.171875 -5.164062 13.582031 -5.359375 13.9375 -5.578125 C 14.289062 -5.796875 14.628906 -5.988281 14.953125 -6.15625 C 15.285156 -6.320312 15.648438 -6.40625 16.046875 -6.40625 C 16.472656 -6.40625 16.84375 -6.300781 17.15625 -6.09375 C 17.46875 -5.882812 17.71875 -5.617188 17.90625 -5.296875 C 18.101562 -4.972656 18.25 -4.640625 18.34375 -4.296875 C 18.445312 -3.960938 18.5 -3.65625 18.5 -3.375 C 18.5 -2.800781 18.222656 -2.234375 17.671875 -1.671875 C 17.117188 -1.109375 16.269531 -0.640625 15.125 -0.265625 C 13.976562 0.0976562 12.507812 0.28125 10.71875 0.28125 C 9.050781 0.28125 7.582031 0.0078125 6.3125 -0.53125 C 5.039062 -1.082031 3.96875 -1.828125 3.09375 -2.765625 C 2.226562 -3.703125 1.570312 -4.75 1.125 -5.90625 C 0.6875 -7.070312 0.46875 -8.265625 0.46875 -9.484375 Z M 7.796875 -11.5 C 7.484375 -10.6875 7.367188 -10.03125 7.453125 -9.53125 C 7.546875 -9.03125 7.828125 -8.78125 8.296875 -8.78125 C 8.773438 -8.78125 9.253906 -9.03125 9.734375 -9.53125 C 10.222656 -10.03125 10.625 -10.6875 10.9375 -11.5 C 11.269531 -12.320312 11.390625 -12.984375 11.296875 -13.484375 C 11.203125 -13.984375 10.914062 -14.234375 10.4375 -14.234375 C 9.96875 -14.234375 9.492188 -13.984375 9.015625 -13.484375 C 8.535156 -12.984375 8.128906 -12.320312 7.796875 -11.5 Z M 7.796875 -11.5 "/></g></g></g><g fill="#004465" fill-opacity="1"><g transform="translate(156.446864, 237.514393)"><g><path d="M 2.109375 -13.65625 C 2.109375 -15.007812 2.066406 -16.175781 1.984375 -17.15625 C 1.898438 -18.132812 1.789062 -18.976562 1.65625 -19.6875 C 1.519531 -20.394531 1.378906 -21.007812 1.234375 -21.53125 C 1.097656 -22.050781 0.960938 -22.519531 0.828125 -22.9375 C 0.691406 -23.351562 0.582031 -23.769531 0.5 -24.1875 C 0.414062 -24.613281 0.375 -25.082031 0.375 -25.59375 C 0.375 -26.0625 0.484375 -26.414062 0.703125 -26.65625 C 0.929688 -26.894531 1.207031 -27.0625 1.53125 -27.15625 C 1.851562 -27.25 2.171875 -27.296875 2.484375 -27.296875 C 2.796875 -27.304688 3.054688 -27.3125 3.265625 -27.3125 L 6.453125 -27.3125 C 6.679688 -27.3125 6.976562 -27.304688 7.34375 -27.296875 C 7.71875 -27.285156 8.082031 -27.207031 8.4375 -27.0625 C 8.789062 -26.925781 9.046875 -26.675781 9.203125 -26.3125 L 9.203125 -26.328125 L 15.671875 -14.015625 C 15.660156 -15.316406 15.613281 -16.4375 15.53125 -17.375 C 15.445312 -18.320312 15.335938 -19.132812 15.203125 -19.8125 C 15.066406 -20.5 14.925781 -21.09375 14.78125 -21.59375 C 14.632812 -22.09375 14.5 -22.550781 14.375 -22.96875 C 14.25 -23.382812 14.144531 -23.796875 14.0625 -24.203125 C 13.976562 -24.617188 13.9375 -25.082031 13.9375 -25.59375 C 13.9375 -26.0625 14.046875 -26.414062 14.265625 -26.65625 C 14.492188 -26.894531 14.769531 -27.0625 15.09375 -27.15625 C 15.414062 -27.25 15.734375 -27.296875 16.046875 -27.296875 C 16.359375 -27.304688 16.617188 -27.3125 16.828125 -27.3125 L 20.03125 -27.3125 C 20.226562 -27.3125 20.484375 -27.304688 20.796875 -27.296875 C 21.117188 -27.296875 21.441406 -27.25 21.765625 -27.15625 C 22.085938 -27.0625 22.359375 -26.894531 22.578125 -26.65625 C 22.804688 -26.414062 22.921875 -26.0625 22.921875 -25.59375 C 22.921875 -25.082031 22.878906 -24.613281 22.796875 -24.1875 C 22.710938 -23.769531 22.601562 -23.351562 22.46875 -22.9375 C 22.332031 -22.519531 22.191406 -22.050781 22.046875 -21.53125 C 21.898438 -21.007812 21.757812 -20.394531 21.625 -19.6875 C 21.5 -18.976562 21.394531 -18.132812 21.3125 -17.15625 C 21.226562 -16.175781 21.1875 -15.007812 21.1875 -13.65625 C 21.1875 -12.300781 21.226562 -11.132812 21.3125 -10.15625 C 21.394531 -9.175781 21.5 -8.332031 21.625 -7.625 C 21.757812 -6.914062 21.898438 -6.300781 22.046875 -5.78125 C 22.191406 -5.257812 22.332031 -4.789062 22.46875 -4.375 C 22.601562 -3.957031 22.710938 -3.539062 22.796875 -3.125 C 22.878906 -2.707031 22.921875 -2.238281 22.921875 -1.71875 C 22.921875 -1.257812 22.804688 -0.90625 22.578125 -0.65625 C 22.359375 -0.414062 22.085938 -0.25 21.765625 -0.15625 C 21.441406 -0.0625 21.117188 -0.0078125 20.796875 0 C 20.484375 0 20.226562 0 20.03125 0 L 16.828125 0 C 16.660156 0 16.441406 0 16.171875 0 C 15.910156 -0.0078125 15.632812 -0.0390625 15.34375 -0.09375 C 15.0625 -0.144531 14.804688 -0.242188 14.578125 -0.390625 C 14.347656 -0.546875 14.175781 -0.765625 14.0625 -1.046875 L 7.609375 -13.28125 C 7.617188 -11.988281 7.664062 -10.867188 7.75 -9.921875 C 7.832031 -8.984375 7.9375 -8.171875 8.0625 -7.484375 C 8.195312 -6.804688 8.335938 -6.210938 8.484375 -5.703125 C 8.628906 -5.203125 8.765625 -4.742188 8.890625 -4.328125 C 9.023438 -3.921875 9.128906 -3.507812 9.203125 -3.09375 C 9.285156 -2.6875 9.328125 -2.226562 9.328125 -1.71875 C 9.328125 -1.257812 9.21875 -0.90625 9 -0.65625 C 8.78125 -0.414062 8.507812 -0.25 8.1875 -0.15625 C 7.863281 -0.0625 7.539062 -0.0078125 7.21875 0 C 6.90625 0 6.648438 0 6.453125 0 L 3.265625 0 C 3.054688 0 2.796875 0 2.484375 0 C 2.171875 -0.0078125 1.851562 -0.0625 1.53125 -0.15625 C 1.207031 -0.25 0.929688 -0.414062 0.703125 -0.65625 C 0.484375 -0.90625 0.375 -1.257812 0.375 -1.71875 C 0.375 -2.238281 0.414062 -2.707031 0.5 -3.125 C 0.582031 -3.539062 0.691406 -3.957031 0.828125 -4.375 C 0.960938 -4.789062 1.097656 -5.257812 1.234375 -5.78125 C 1.378906 -6.300781 1.519531 -6.914062 1.65625 -7.625 C 1.789062 -8.332031 1.898438 -9.175781 1.984375 -10.15625 C 2.066406 -11.132812 2.109375 -12.300781 2.109375 -13.65625 Z M 2.109375 -13.65625 "/></g></g></g><g fill="#004465" fill-opacity="1"><g transform="translate(180.542446, 237.514393)"><g><path d="M 0.1875 -5.953125 C 0.1875 -6.640625 0.226562 -7.222656 0.3125 -7.703125 C 0.394531 -8.179688 0.484375 -8.625 0.578125 -9.03125 C 0.679688 -9.4375 0.773438 -9.847656 0.859375 -10.265625 C 0.941406 -10.691406 0.984375 -11.191406 0.984375 -11.765625 C 0.984375 -12.316406 0.945312 -12.8125 0.875 -13.25 C 0.800781 -13.695312 0.707031 -14.117188 0.59375 -14.515625 C 0.488281 -14.921875 0.394531 -15.335938 0.3125 -15.765625 C 0.238281 -16.191406 0.203125 -16.671875 0.203125 -17.203125 C 0.203125 -17.660156 0.320312 -18.019531 0.5625 -18.28125 C 0.800781 -18.539062 1.070312 -18.71875 1.375 -18.8125 C 1.6875 -18.914062 1.929688 -18.96875 2.109375 -18.96875 L 5.9375 -18.96875 C 6.46875 -18.96875 6.90625 -18.804688 7.25 -18.484375 C 7.59375 -18.160156 7.859375 -17.75 8.046875 -17.25 C 8.234375 -16.75 8.359375 -16.21875 8.421875 -15.65625 C 8.492188 -15.09375 8.53125 -14.570312 8.53125 -14.09375 C 8.53125 -13.132812 8.460938 -12.273438 8.328125 -11.515625 C 8.191406 -10.753906 8.03125 -10.070312 7.84375 -9.46875 C 7.65625 -8.875 7.492188 -8.332031 7.359375 -7.84375 C 7.222656 -7.363281 7.15625 -6.914062 7.15625 -6.5 C 7.15625 -6.0625 7.234375 -5.65625 7.390625 -5.28125 C 7.554688 -4.90625 7.820312 -4.71875 8.1875 -4.71875 C 8.625 -4.71875 8.992188 -4.898438 9.296875 -5.265625 C 9.597656 -5.640625 9.84375 -6.125 10.03125 -6.71875 C 10.21875 -7.3125 10.351562 -7.945312 10.4375 -8.625 C 10.53125 -9.3125 10.578125 -9.976562 10.578125 -10.625 C 10.578125 -11.46875 10.546875 -12.207031 10.484375 -12.84375 C 10.421875 -13.488281 10.347656 -14.0625 10.265625 -14.5625 C 10.179688 -15.0625 10.109375 -15.523438 10.046875 -15.953125 C 9.984375 -16.390625 9.953125 -16.832031 9.953125 -17.28125 C 9.953125 -17.738281 10.039062 -18.082031 10.21875 -18.3125 C 10.394531 -18.550781 10.613281 -18.71875 10.875 -18.8125 C 11.144531 -18.90625 11.421875 -18.953125 11.703125 -18.953125 C 11.984375 -18.960938 12.222656 -18.96875 12.421875 -18.96875 L 16.515625 -18.96875 C 16.722656 -18.96875 16.984375 -18.960938 17.296875 -18.953125 C 17.617188 -18.953125 17.9375 -18.90625 18.25 -18.8125 C 18.570312 -18.71875 18.84375 -18.550781 19.0625 -18.3125 C 19.289062 -18.082031 19.40625 -17.738281 19.40625 -17.28125 C 19.40625 -16.832031 19.316406 -16.332031 19.140625 -15.78125 C 18.972656 -15.238281 18.78125 -14.625 18.5625 -13.9375 C 18.34375 -13.25 18.144531 -12.476562 17.96875 -11.625 C 17.800781 -10.769531 17.71875 -9.8125 17.71875 -8.75 C 17.71875 -7.894531 17.800781 -7.128906 17.96875 -6.453125 C 18.144531 -5.773438 18.347656 -5.160156 18.578125 -4.609375 C 18.816406 -4.054688 19.019531 -3.539062 19.1875 -3.0625 C 19.351562 -2.59375 19.4375 -2.132812 19.4375 -1.6875 C 19.4375 -1.226562 19.34375 -0.878906 19.15625 -0.640625 C 18.96875 -0.410156 18.726562 -0.25 18.4375 -0.15625 C 18.15625 -0.0625 17.875 -0.0078125 17.59375 0 C 17.3125 0 17.066406 0 16.859375 0 L 13.375 0 C 12.675781 0 12.117188 -0.113281 11.703125 -0.34375 C 11.296875 -0.570312 10.988281 -0.941406 10.78125 -1.453125 C 10.625 -1.171875 10.3125 -0.894531 9.84375 -0.625 C 9.382812 -0.363281 8.863281 -0.148438 8.28125 0.015625 C 7.707031 0.191406 7.160156 0.28125 6.640625 0.28125 C 5.035156 0.28125 3.757812 0.015625 2.8125 -0.515625 C 1.875 -1.054688 1.203125 -1.796875 0.796875 -2.734375 C 0.390625 -3.671875 0.1875 -4.742188 0.1875 -5.953125 Z M 0.1875 -5.953125 "/></g></g></g><g fill="#004465" fill-opacity="1"><g transform="translate(200.976293, 237.514393)"><g><path d="M 0.46875 -9.484375 C 0.46875 -10.679688 0.671875 -11.863281 1.078125 -13.03125 C 1.492188 -14.195312 2.125 -15.242188 2.96875 -16.171875 C 3.8125 -17.109375 4.875 -17.851562 6.15625 -18.40625 C 7.4375 -18.96875 8.957031 -19.25 10.71875 -19.25 C 11.6875 -19.25 12.617188 -19.125 13.515625 -18.875 C 14.421875 -18.632812 15.222656 -18.265625 15.921875 -17.765625 C 16.628906 -17.265625 17.1875 -16.640625 17.59375 -15.890625 C 18 -15.148438 18.203125 -14.28125 18.203125 -13.28125 C 18.203125 -12.175781 18.035156 -11.21875 17.703125 -10.40625 C 17.367188 -9.601562 16.921875 -8.921875 16.359375 -8.359375 C 15.796875 -7.804688 15.171875 -7.347656 14.484375 -6.984375 C 13.804688 -6.628906 13.117188 -6.34375 12.421875 -6.125 C 11.765625 -5.925781 11.1875 -5.832031 10.6875 -5.84375 C 10.1875 -5.851562 9.789062 -5.859375 9.5 -5.859375 C 9.332031 -5.859375 9.207031 -5.84375 9.125 -5.8125 C 9.050781 -5.78125 9.015625 -5.707031 9.015625 -5.59375 C 9.015625 -5.394531 9.125 -5.226562 9.34375 -5.09375 C 9.5625 -4.96875 9.828125 -4.878906 10.140625 -4.828125 C 10.453125 -4.773438 10.734375 -4.75 10.984375 -4.75 C 11.660156 -4.75 12.234375 -4.832031 12.703125 -5 C 13.171875 -5.164062 13.582031 -5.359375 13.9375 -5.578125 C 14.289062 -5.796875 14.628906 -5.988281 14.953125 -6.15625 C 15.285156 -6.320312 15.648438 -6.40625 16.046875 -6.40625 C 16.472656 -6.40625 16.84375 -6.300781 17.15625 -6.09375 C 17.46875 -5.882812 17.71875 -5.617188 17.90625 -5.296875 C 18.101562 -4.972656 18.25 -4.640625 18.34375 -4.296875 C 18.445312 -3.960938 18.5 -3.65625 18.5 -3.375 C 18.5 -2.800781 18.222656 -2.234375 17.671875 -1.671875 C 17.117188 -1.109375 16.269531 -0.640625 15.125 -0.265625 C 13.976562 0.0976562 12.507812 0.28125 10.71875 0.28125 C 9.050781 0.28125 7.582031 0.0078125 6.3125 -0.53125 C 5.039062 -1.082031 3.96875 -1.828125 3.09375 -2.765625 C 2.226562 -3.703125 1.570312 -4.75 1.125 -5.90625 C 0.6875 -7.070312 0.46875 -8.265625 0.46875 -9.484375 Z M 7.796875 -11.5 C 7.484375 -10.6875 7.367188 -10.03125 7.453125 -9.53125 C 7.546875 -9.03125 7.828125 -8.78125 8.296875 -8.78125 C 8.773438 -8.78125 9.253906 -9.03125 9.734375 -9.53125 C 10.222656 -10.03125 10.625 -10.6875 10.9375 -11.5 C 11.269531 -12.320312 11.390625 -12.984375 11.296875 -13.484375 C 11.203125 -13.984375 10.914062 -14.234375 10.4375 -14.234375 C 9.96875 -14.234375 9.492188 -13.984375 9.015625 -13.484375 C 8.535156 -12.984375 8.128906 -12.320312 7.796875 -11.5 Z M 7.796875 -11.5 "/></g></g></g><g fill="#004465" fill-opacity="1"><g transform="translate(220.366652, 237.514393)"><g><path d="M 4.90625 -7.921875 C 4.351562 -9.085938 3.835938 -10.078125 3.359375 -10.890625 C 2.878906 -11.703125 2.445312 -12.394531 2.0625 -12.96875 C 1.675781 -13.550781 1.34375 -14.066406 1.0625 -14.515625 C 0.78125 -14.960938 0.5625 -15.40625 0.40625 -15.84375 C 0.257812 -16.28125 0.1875 -16.765625 0.1875 -17.296875 C 0.1875 -17.804688 0.351562 -18.210938 0.6875 -18.515625 C 1.019531 -18.816406 1.441406 -18.96875 1.953125 -18.96875 L 8 -18.96875 C 8.351562 -18.96875 8.71875 -18.925781 9.09375 -18.84375 C 9.476562 -18.757812 9.800781 -18.59375 10.0625 -18.34375 C 10.320312 -18.101562 10.453125 -17.738281 10.453125 -17.25 C 10.453125 -16.84375 10.367188 -16.421875 10.203125 -15.984375 C 10.035156 -15.554688 9.953125 -15.078125 9.953125 -14.546875 C 9.953125 -13.828125 10.097656 -13.066406 10.390625 -12.265625 C 10.679688 -11.460938 10.988281 -10.59375 11.3125 -9.65625 C 11.625 -10.59375 11.925781 -11.460938 12.21875 -12.265625 C 12.507812 -13.066406 12.65625 -13.828125 12.65625 -14.546875 C 12.65625 -15.078125 12.570312 -15.554688 12.40625 -15.984375 C 12.238281 -16.421875 12.15625 -16.84375 12.15625 -17.25 C 12.15625 -17.738281 12.285156 -18.101562 12.546875 -18.34375 C 12.804688 -18.59375 13.125 -18.757812 13.5 -18.84375 C 13.882812 -18.925781 14.253906 -18.96875 14.609375 -18.96875 L 19 -18.96875 C 19.507812 -18.96875 19.929688 -18.816406 20.265625 -18.515625 C 20.597656 -18.210938 20.765625 -17.804688 20.765625 -17.296875 C 20.765625 -16.929688 20.703125 -16.578125 20.578125 -16.234375 C 20.453125 -15.890625 20.257812 -15.503906 20 -15.078125 C 19.738281 -14.648438 19.414062 -14.125 19.03125 -13.5 C 18.65625 -12.882812 18.21875 -12.125 17.71875 -11.21875 C 17.226562 -10.320312 16.671875 -9.222656 16.046875 -7.921875 C 15.742188 -7.296875 15.453125 -6.613281 15.171875 -5.875 C 14.890625 -5.132812 14.59375 -4.398438 14.28125 -3.671875 C 13.96875 -2.953125 13.617188 -2.289062 13.234375 -1.6875 C 12.847656 -1.09375 12.40625 -0.613281 11.90625 -0.25 C 11.40625 0.101562 10.816406 0.28125 10.140625 0.28125 C 9.523438 0.28125 8.992188 0.101562 8.546875 -0.25 C 8.109375 -0.613281 7.726562 -1.09375 7.40625 -1.6875 C 7.082031 -2.289062 6.785156 -2.953125 6.515625 -3.671875 C 6.253906 -4.398438 6 -5.132812 5.75 -5.875 C 5.5 -6.613281 5.21875 -7.296875 4.90625 -7.921875 Z M 4.90625 -7.921875 "/></g></g></g><g fill="#004465" fill-opacity="1"><g transform="translate(242.128598, 237.514393)"><g><path d="M 0.46875 -9.484375 C 0.46875 -10.796875 0.613281 -11.953125 0.90625 -12.953125 C 1.207031 -13.953125 1.613281 -14.8125 2.125 -15.53125 C 2.632812 -16.25 3.195312 -16.847656 3.8125 -17.328125 C 4.4375 -17.804688 5.078125 -18.1875 5.734375 -18.46875 C 6.390625 -18.75 7.019531 -18.945312 7.625 -19.0625 C 8.226562 -19.1875 8.757812 -19.25 9.21875 -19.25 C 10.039062 -19.257812 10.691406 -19.238281 11.171875 -19.1875 C 11.660156 -19.144531 12.066406 -19.097656 12.390625 -19.046875 C 12.710938 -18.992188 13.035156 -18.96875 13.359375 -18.96875 C 14.015625 -18.96875 14.539062 -18.992188 14.9375 -19.046875 C 15.34375 -19.097656 15.695312 -19.144531 16 -19.1875 C 16.300781 -19.226562 16.59375 -19.25 16.875 -19.25 C 17.082031 -19.25 17.320312 -19.222656 17.59375 -19.171875 C 17.863281 -19.128906 18.128906 -19.03125 18.390625 -18.875 C 18.660156 -18.71875 18.882812 -18.5 19.0625 -18.21875 C 19.238281 -17.945312 19.328125 -17.582031 19.328125 -17.125 C 19.328125 -16.6875 19.257812 -16.222656 19.125 -15.734375 C 19 -15.253906 18.851562 -14.722656 18.6875 -14.140625 C 18.519531 -13.566406 18.367188 -12.898438 18.234375 -12.140625 C 18.109375 -11.378906 18.046875 -10.492188 18.046875 -9.484375 C 18.046875 -8.609375 18.09375 -7.863281 18.1875 -7.25 C 18.28125 -6.632812 18.398438 -6.101562 18.546875 -5.65625 C 18.691406 -5.207031 18.835938 -4.816406 18.984375 -4.484375 C 19.128906 -4.148438 19.25 -3.832031 19.34375 -3.53125 C 19.4375 -3.226562 19.484375 -2.90625 19.484375 -2.5625 C 19.484375 -2 19.265625 -1.503906 18.828125 -1.078125 C 18.398438 -0.648438 17.828125 -0.316406 17.109375 -0.078125 C 16.390625 0.160156 15.582031 0.28125 14.6875 0.28125 C 14.289062 0.28125 13.984375 0.222656 13.765625 0.109375 C 13.554688 -0.00390625 13.382812 -0.132812 13.25 -0.28125 C 13.113281 -0.425781 12.96875 -0.550781 12.8125 -0.65625 C 12.664062 -0.769531 12.46875 -0.828125 12.21875 -0.828125 C 11.9375 -0.828125 11.6875 -0.769531 11.46875 -0.65625 C 11.257812 -0.550781 11.019531 -0.425781 10.75 -0.28125 C 10.476562 -0.132812 10.140625 -0.00390625 9.734375 0.109375 C 9.328125 0.222656 8.796875 0.28125 8.140625 0.28125 C 7.085938 0.28125 6.097656 0.046875 5.171875 -0.421875 C 4.242188 -0.890625 3.425781 -1.550781 2.71875 -2.40625 C 2.019531 -3.269531 1.46875 -4.300781 1.0625 -5.5 C 0.664062 -6.695312 0.46875 -8.023438 0.46875 -9.484375 Z M 9.375 -14.25 C 8.863281 -14.25 8.453125 -13.8125 8.140625 -12.9375 C 7.835938 -12.0625 7.6875 -10.910156 7.6875 -9.484375 C 7.6875 -8.066406 7.835938 -6.921875 8.140625 -6.046875 C 8.453125 -5.179688 8.863281 -4.75 9.375 -4.75 C 9.875 -4.75 10.28125 -5.179688 10.59375 -6.046875 C 10.90625 -6.921875 11.0625 -8.066406 11.0625 -9.484375 C 11.0625 -10.910156 10.90625 -12.0625 10.59375 -12.9375 C 10.28125 -13.8125 9.875 -14.25 9.375 -14.25 Z M 9.375 -14.25 "/></g></g></g></svg>